<svg width="202" height="202" viewBox="0 0 202 202" fill="none" xmlns="http://www.w3.org/2000/svg">
<rect x="0.5" y="80.5" width="41" height="41" fill="white" stroke="black"/>
<rect x="0.5" y="80.5" width="41" height="41" fill="white" stroke="black"/>
<rect x="40.5" y="80.5" width="41" height="41" fill="#FBFE7B" stroke="black"/>
<rect x="80.5" y="80.5" width="41" height="41" fill="white" stroke="black"/>
<rect x="120.5" y="80.5" width="41" height="41" fill="#FBFE7B" stroke="black"/>
<rect x="160.5" y="80.5" width="41" height="41" fill="white" stroke="black"/>
<rect x="0.5" y="40.5" width="41" height="41" fill="#FBFE7B" stroke="black"/>
<rect x="0.5" y="0.5" width="41" height="41" fill="white" stroke="black"/>
<rect x="40.5" y="40.5" width="41" height="41" fill="white" stroke="black"/>
<rect x="40.5" y="0.5" width="41" height="41" fill="white" stroke="black"/>
<rect x="80.5" y="40.5" width="41" height="41" fill="white" stroke="black"/>
<rect x="80.5" y="0.5" width="41" height="41" fill="white" stroke="black"/>
<rect x="120.5" y="40.5" width="41" height="41" fill="white" stroke="black"/>
<rect x="120.5" y="0.5" width="41" height="41" fill="white" stroke="black"/>
<rect x="160.5" y="40.5" width="41" height="41" fill="#FBFE7B" stroke="black"/>
<rect x="160.5" y="0.5" width="41" height="41" fill="white" stroke="black"/>
<rect x="0.5" y="120.5" width="41" height="41" fill="white" stroke="black"/>
<rect x="40.5" y="120.5" width="41" height="41" fill="white" stroke="black"/>
<rect x="80.5" y="120.5" width="41" height="41" fill="white" stroke="black"/>
<rect x="120.5" y="120.5" width="41" height="41" fill="white" stroke="black"/>
<rect x="160.5" y="120.5" width="41" height="41" fill="white" stroke="black"/>
<rect x="0.5" y="160.5" width="41" height="41" fill="white" stroke="black"/>
<rect x="40.5" y="160.5" width="41" height="41" fill="white" stroke="black"/>
<rect x="80.5" y="160.5" width="41" height="41" fill="white" stroke="black"/>
<rect x="120.5" y="160.5" width="41" height="41" fill="white" stroke="black"/>
<rect x="160.5" y="160.5" width="41" height="41" fill="white" stroke="black"/>
<path d="M53 9.44444C53 9.88326 53.0706 10.3055 53.201 10.7004L52.3235 11.112C51.596 10.3579 50.575 9.88889 49.4444 9.88889C47.2353 9.88889 45.4444 11.6798 45.4444 13.8889C45.4444 15.8581 46.8675 17.495 48.7413 17.8273L50.8489 25.0533C50.8929 25.2042 50.9567 25.3485 51.0386 25.4826L52.2533 27.4703L52.2459 27.4716C51.3967 27.6218 50.7778 28.3599 50.7778 29.2222V32.5556C50.7778 33.5374 51.5737 34.3333 52.5556 34.3333L69.4786 34.3333C69.9501 34.3333 70.4023 34.146 70.7357 33.8126C71.0691 33.4792 71.2564 33.0271 71.2564 32.5556V29.2222C71.2564 28.3589 70.6361 27.6203 69.7857 27.4712L69.75 27.4649L70.9614 25.4826C71.0433 25.3485 71.1071 25.2042 71.1511 25.0533L73.2587 17.8273C75.1325 17.495 76.5556 15.8581 76.5556 13.8889C76.5556 11.6798 74.7647 9.88889 72.5556 9.88889C71.4236 9.88889 70.4014 10.3591 69.6737 11.1149L68.7978 10.704C68.929 10.308 69 9.88459 69 9.44444C69 7.2353 67.2091 5.44444 65 5.44444C62.7909 5.44444 61 7.2353 61 9.44444C61 7.2353 59.2091 5.44444 57 5.44444C54.7909 5.44444 53 7.2353 53 9.44444Z" fill="#34364C"/>
<path d="M57.7977 11.5192C58.6309 11.1986 59.2222 10.3906 59.2222 9.44444C59.2222 8.21714 58.2273 7.22222 57 7.22222C55.7727 7.22222 54.7778 8.21714 54.7778 9.44444C54.7778 10.5786 55.6274 11.5143 56.7249 11.6498L55.7339 19.6667L50.9565 15.5174C51.3934 15.1116 51.6667 14.5321 51.6667 13.8889C51.6667 12.6616 50.6717 11.6667 49.4444 11.6667C48.2171 11.6667 47.2222 12.6616 47.2222 13.8889C47.2222 15.1162 48.2171 16.1111 49.4444 16.1111C49.6605 16.1111 49.8693 16.0803 50.0668 16.0228L52.5556 24.5556L55.1292 28.7669L52.5556 29.2222V32.5556L69.4786 32.5556V29.2222L66.872 28.7651L69.4444 24.5556L71.9332 16.0228C72.1307 16.0803 72.3395 16.1111 72.5556 16.1111C73.7829 16.1111 74.7778 15.1162 74.7778 13.8889C74.7778 12.6616 73.7829 11.6667 72.5556 11.6667C71.3283 11.6667 70.3333 12.6616 70.3333 13.8889C70.3333 14.5321 70.6066 15.1116 71.0435 15.5174L66.2661 19.6667L65.2751 11.6498C66.3726 11.5143 67.2222 10.5786 67.2222 9.44444C67.2222 8.21714 66.2273 7.22222 65 7.22222C63.7727 7.22222 62.7778 8.21714 62.7778 9.44444C62.7778 10.3906 63.3691 11.1986 64.2023 11.5192L61 18.7778L57.7977 11.5192Z" fill="#F4F7FA"/>
<path d="M13 89.4444C13 89.8833 13.0706 90.3055 13.201 90.7004L12.3235 91.112C11.596 90.3579 10.575 89.8889 9.44444 89.8889C7.2353 89.8889 5.44444 91.6798 5.44444 93.8889C5.44444 95.8581 6.86746 97.495 8.74129 97.8273L10.8489 105.053C10.8929 105.204 10.9567 105.349 11.0386 105.483L12.2533 107.47L12.2459 107.472C11.3967 107.622 10.7778 108.36 10.7778 109.222V112.556C10.7778 113.537 11.5737 114.333 12.5556 114.333L29.4786 114.333C29.9501 114.333 30.4023 114.146 30.7357 113.813C31.0691 113.479 31.2564 113.027 31.2564 112.556V109.222C31.2564 108.359 30.6361 107.62 29.7857 107.471L29.75 107.465L30.9614 105.483C31.0433 105.349 31.1071 105.204 31.1511 105.053L33.2587 97.8273C35.1325 97.495 36.5556 95.8581 36.5556 93.8889C36.5556 91.6798 34.7647 89.8889 32.5556 89.8889C31.4236 89.8889 30.4014 90.3591 29.6737 91.1149L28.7978 90.704C28.929 90.308 29 89.8846 29 89.4444C29 87.2353 27.2091 85.4444 25 85.4444C22.7909 85.4444 21 87.2353 21 89.4444C21 87.2353 19.2091 85.4444 17 85.4444C14.7909 85.4444 13 87.2353 13 89.4444Z" fill="#34364C"/>
<path d="M17.7977 91.5192C18.6309 91.1986 19.2222 90.3906 19.2222 89.4444C19.2222 88.2171 18.2273 87.2222 17 87.2222C15.7727 87.2222 14.7778 88.2171 14.7778 89.4444C14.7778 90.5786 15.6274 91.5143 16.7249 91.6498L15.7339 99.6667L10.9565 95.5174C11.3934 95.1116 11.6667 94.5321 11.6667 93.8889C11.6667 92.6616 10.6717 91.6667 9.44444 91.6667C8.21714 91.6667 7.22222 92.6616 7.22222 93.8889C7.22222 95.1162 8.21714 96.1111 9.44444 96.1111C9.66049 96.1111 9.86934 96.0803 10.0668 96.0228L12.5556 104.556L15.1292 108.767L12.5556 109.222V112.556L29.4786 112.556V109.222L26.872 108.765L29.4444 104.556L31.9332 96.0228C32.1307 96.0803 32.3395 96.1111 32.5556 96.1111C33.7829 96.1111 34.7778 95.1162 34.7778 93.8889C34.7778 92.6616 33.7829 91.6667 32.5556 91.6667C31.3283 91.6667 30.3333 92.6616 30.3333 93.8889C30.3333 94.5321 30.6066 95.1116 31.0435 95.5174L26.2661 99.6667L25.2751 91.6498C26.3726 91.5143 27.2222 90.5786 27.2222 89.4444C27.2222 88.2171 26.2273 87.2222 25 87.2222C23.7727 87.2222 22.7778 88.2171 22.7778 89.4444C22.7778 90.3906 23.3691 91.1986 24.2023 91.5192L21 98.7778L17.7977 91.5192Z" fill="#F4F7FA"/>
<path d="M133 49.4444C133 49.8833 133.071 50.3055 133.201 50.7004L132.324 51.112C131.596 50.3579 130.575 49.8889 129.444 49.8889C127.235 49.8889 125.444 51.6798 125.444 53.8889C125.444 55.8581 126.867 57.495 128.741 57.8273L130.849 65.0533C130.893 65.2042 130.957 65.3485 131.039 65.4826L132.253 67.4703L132.246 67.4716C131.397 67.6219 130.778 68.3599 130.778 69.2222V72.5556C130.778 73.5374 131.574 74.3333 132.556 74.3333L149.479 74.3333C149.95 74.3333 150.402 74.146 150.736 73.8126C151.069 73.4792 151.256 73.0271 151.256 72.5556V69.2222C151.256 68.3589 150.636 67.6203 149.786 67.4712L149.75 67.4649L150.961 65.4826C151.043 65.3485 151.107 65.2042 151.151 65.0533L153.259 57.8273C155.133 57.495 156.556 55.8581 156.556 53.8889C156.556 51.6798 154.765 49.8889 152.556 49.8889C151.424 49.8889 150.401 50.3591 149.674 51.1149L148.798 50.704C148.929 50.308 149 49.8846 149 49.4444C149 47.2353 147.209 45.4444 145 45.4444C142.791 45.4444 141 47.2353 141 49.4444C141 47.2353 139.209 45.4444 137 45.4444C134.791 45.4444 133 47.2353 133 49.4444Z" fill="#34364C"/>
<path d="M137.798 51.5192C138.631 51.1986 139.222 50.3906 139.222 49.4444C139.222 48.2171 138.227 47.2222 137 47.2222C135.773 47.2222 134.778 48.2171 134.778 49.4444C134.778 50.5786 135.627 51.5143 136.725 51.6498L135.734 59.6667L130.957 55.5174C131.393 55.1116 131.667 54.5321 131.667 53.8889C131.667 52.6616 130.672 51.6667 129.444 51.6667C128.217 51.6667 127.222 52.6616 127.222 53.8889C127.222 55.1162 128.217 56.1111 129.444 56.1111C129.66 56.1111 129.869 56.0803 130.067 56.0228L132.556 64.5556L135.129 68.7669L132.556 69.2222V72.5556L149.479 72.5556V69.2222L146.872 68.7651L149.444 64.5556L151.933 56.0228C152.131 56.0803 152.34 56.1111 152.556 56.1111C153.783 56.1111 154.778 55.1162 154.778 53.8889C154.778 52.6616 153.783 51.6667 152.556 51.6667C151.328 51.6667 150.333 52.6616 150.333 53.8889C150.333 54.5321 150.607 55.1116 151.043 55.5174L146.266 59.6667L145.275 51.6498C146.373 51.5143 147.222 50.5786 147.222 49.4444C147.222 48.2171 146.227 47.2222 145 47.2222C143.773 47.2222 142.778 48.2171 142.778 49.4444C142.778 50.3906 143.369 51.1986 144.202 51.5192L141 58.7778L137.798 51.5192Z" fill="#F4F7FA"/>
<rect width="32" height="32" transform="translate(85 125)" fill="white"/>
<path d="M93 129.444C93 129.883 93.0706 130.305 93.201 130.7L92.3235 131.112C91.596 130.358 90.575 129.889 89.4444 129.889C87.2353 129.889 85.4444 131.68 85.4444 133.889C85.4444 135.858 86.8675 137.495 88.7413 137.827L90.8489 145.053C90.8929 145.204 90.9567 145.349 91.0386 145.483L92.2533 147.47L92.2459 147.472C91.3967 147.622 90.7778 148.36 90.7778 149.222V152.556C90.7778 153.537 91.5737 154.333 92.5556 154.333L109.479 154.333C109.95 154.333 110.402 154.146 110.736 153.813C111.069 153.479 111.256 153.027 111.256 152.556V149.222C111.256 148.359 110.636 147.62 109.786 147.471L109.75 147.465L110.961 145.483C111.043 145.349 111.107 145.204 111.151 145.053L113.259 137.827C115.133 137.495 116.556 135.858 116.556 133.889C116.556 131.68 114.765 129.889 112.556 129.889C111.424 129.889 110.401 130.359 109.674 131.115L108.798 130.704C108.929 130.308 109 129.885 109 129.444C109 127.235 107.209 125.444 105 125.444C102.791 125.444 101 127.235 101 129.444C101 127.235 99.2091 125.444 97 125.444C94.7909 125.444 93 127.235 93 129.444Z" fill="#34364C"/>
<path d="M97.7977 131.519C98.6309 131.199 99.2222 130.391 99.2222 129.444C99.2222 128.217 98.2273 127.222 97 127.222C95.7727 127.222 94.7778 128.217 94.7778 129.444C94.7778 130.579 95.6274 131.514 96.7249 131.65L95.7339 139.667L90.9565 135.517C91.3934 135.112 91.6667 134.532 91.6667 133.889C91.6667 132.662 90.6717 131.667 89.4444 131.667C88.2171 131.667 87.2222 132.662 87.2222 133.889C87.2222 135.116 88.2171 136.111 89.4444 136.111C89.6605 136.111 89.8693 136.08 90.0668 136.023L92.5556 144.556L95.1292 148.767L92.5556 149.222V152.556L109.479 152.556V149.222L106.872 148.765L109.444 144.556L111.933 136.023C112.131 136.08 112.34 136.111 112.556 136.111C113.783 136.111 114.778 135.116 114.778 133.889C114.778 132.662 113.783 131.667 112.556 131.667C111.328 131.667 110.333 132.662 110.333 133.889C110.333 134.532 110.607 135.112 111.043 135.517L106.266 139.667L105.275 131.65C106.373 131.514 107.222 130.579 107.222 129.444C107.222 128.217 106.227 127.222 105 127.222C103.773 127.222 102.778 128.217 102.778 129.444C102.778 130.391 103.369 131.199 104.202 131.519L101 138.778L97.7977 131.519Z" fill="#FBFE7B"/>
<path d="M126.998 105H125.914V98.6602H126.998V105ZM125.826 96.9785C125.826 96.8027 125.879 96.6543 125.984 96.5332C126.094 96.4121 126.254 96.3516 126.465 96.3516C126.676 96.3516 126.836 96.4121 126.945 96.5332C127.055 96.6543 127.109 96.8027 127.109 96.9785C127.109 97.1543 127.055 97.3008 126.945 97.418C126.836 97.5352 126.676 97.5938 126.465 97.5938C126.254 97.5938 126.094 97.5352 125.984 97.418C125.879 97.3008 125.826 97.1543 125.826 96.9785ZM130.994 101.818H128.135V100.934H130.994V101.818ZM135.506 105H134.416V97.7754L132.23 98.5781V97.5938L135.336 96.4277H135.506V105ZM138.758 106.699L138.143 106.277C138.51 105.766 138.701 105.238 138.717 104.695V103.717H139.777V104.566C139.777 104.961 139.68 105.355 139.484 105.75C139.293 106.145 139.051 106.461 138.758 106.699ZM145.244 98.6602V105.732C145.244 106.951 144.691 107.561 143.586 107.561C143.348 107.561 143.127 107.525 142.924 107.455V106.588C143.049 106.619 143.213 106.635 143.416 106.635C143.658 106.635 143.842 106.568 143.967 106.436C144.096 106.307 144.16 106.08 144.16 105.756V98.6602H145.244ZM144.049 96.9785C144.049 96.8066 144.102 96.6602 144.207 96.5391C144.316 96.4141 144.475 96.3516 144.682 96.3516C144.893 96.3516 145.053 96.4121 145.162 96.5332C145.271 96.6543 145.326 96.8027 145.326 96.9785C145.326 97.1543 145.271 97.3008 145.162 97.418C145.053 97.5352 144.893 97.5938 144.682 97.5938C144.471 97.5938 144.312 97.5352 144.207 97.418C144.102 97.3008 144.049 97.1543 144.049 96.9785ZM150.102 100.424H152.48V101.449H150.102V104.145H149.012V101.449H146.633V100.424H149.012V97.9336H150.102V100.424ZM157.256 105H156.166V97.7754L153.98 98.5781V97.5938L157.086 96.4277H157.256V105Z" fill="black"/>
<path d="M44.998 105H43.9141V98.6602H44.998V105ZM43.8262 96.9785C43.8262 96.8027 43.8789 96.6543 43.9844 96.5332C44.0938 96.4121 44.2539 96.3516 44.4648 96.3516C44.6758 96.3516 44.8359 96.4121 44.9453 96.5332C45.0547 96.6543 45.1094 96.8027 45.1094 96.9785C45.1094 97.1543 45.0547 97.3008 44.9453 97.418C44.8359 97.5352 44.6758 97.5938 44.4648 97.5938C44.2539 97.5938 44.0938 97.5352 43.9844 97.418C43.8789 97.3008 43.8262 97.1543 43.8262 96.9785ZM48.9941 101.818H46.1348V100.934H48.9941V101.818ZM53.5059 105H52.416V97.7754L50.2305 98.5781V97.5938L53.3359 96.4277H53.5059V105ZM56.7578 106.699L56.1426 106.277C56.5098 105.766 56.7012 105.238 56.7168 104.695V103.717H57.7773V104.566C57.7773 104.961 57.6797 105.355 57.4844 105.75C57.293 106.145 57.0508 106.461 56.7578 106.699ZM63.2441 98.6602V105.732C63.2441 106.951 62.6914 107.561 61.5859 107.561C61.3477 107.561 61.127 107.525 60.9238 107.455V106.588C61.0488 106.619 61.2129 106.635 61.416 106.635C61.6582 106.635 61.8418 106.568 61.9668 106.436C62.0957 106.307 62.1602 106.08 62.1602 105.756V98.6602H63.2441ZM62.0488 96.9785C62.0488 96.8066 62.1016 96.6602 62.207 96.5391C62.3164 96.4141 62.4746 96.3516 62.6816 96.3516C62.8926 96.3516 63.0527 96.4121 63.1621 96.5332C63.2715 96.6543 63.3262 96.8027 63.3262 96.9785C63.3262 97.1543 63.2715 97.3008 63.1621 97.418C63.0527 97.5352 62.8926 97.5938 62.6816 97.5938C62.4707 97.5938 62.3125 97.5352 62.207 97.418C62.1016 97.3008 62.0488 97.1543 62.0488 96.9785ZM67.252 101.818H64.3926V100.934H67.252V101.818ZM71.7637 105H70.6738V97.7754L68.4883 98.5781V97.5938L71.5938 96.4277H71.7637V105Z" fill="black"/>
<path d="M6.99805 65H5.91406V58.6602H6.99805V65ZM5.82617 56.9785C5.82617 56.8027 5.87891 56.6543 5.98438 56.5332C6.09375 56.4121 6.25391 56.3516 6.46484 56.3516C6.67578 56.3516 6.83594 56.4121 6.94531 56.5332C7.05469 56.6543 7.10938 56.8027 7.10938 56.9785C7.10938 57.1543 7.05469 57.3008 6.94531 57.418C6.83594 57.5352 6.67578 57.5938 6.46484 57.5938C6.25391 57.5938 6.09375 57.5352 5.98438 57.418C5.87891 57.3008 5.82617 57.1543 5.82617 56.9785ZM10.9941 61.8184H8.13477V60.9336H10.9941V61.8184ZM17.5332 65H11.9434V64.2207L14.8965 60.9395C15.334 60.4434 15.6348 60.041 15.7988 59.7324C15.9668 59.4199 16.0508 59.0977 16.0508 58.7656C16.0508 58.3203 15.916 57.9551 15.6465 57.6699C15.377 57.3848 15.0176 57.2422 14.5684 57.2422C14.0293 57.2422 13.6094 57.3965 13.3086 57.7051C13.0117 58.0098 12.8633 58.4355 12.8633 58.9824H11.7793C11.7793 58.1973 12.0312 57.5625 12.5352 57.0781C13.043 56.5938 13.7207 56.3516 14.5684 56.3516C15.3613 56.3516 15.9883 56.5605 16.4492 56.9785C16.9102 57.3926 17.1406 57.9453 17.1406 58.6367C17.1406 59.4766 16.6055 60.4766 15.5352 61.6367L13.25 64.1152H17.5332V65ZM18.7578 66.6992L18.1426 66.2773C18.5098 65.7656 18.7012 65.2383 18.7168 64.6953V63.7168H19.7773V64.5664C19.7773 64.9609 19.6797 65.3555 19.4844 65.75C19.293 66.1445 19.0508 66.4609 18.7578 66.6992ZM25.2441 58.6602V65.7324C25.2441 66.9512 24.6914 67.5605 23.5859 67.5605C23.3477 67.5605 23.127 67.5254 22.9238 67.4551V66.5879C23.0488 66.6191 23.2129 66.6348 23.416 66.6348C23.6582 66.6348 23.8418 66.5684 23.9668 66.4355C24.0957 66.3066 24.1602 66.0801 24.1602 65.7559V58.6602H25.2441ZM24.0488 56.9785C24.0488 56.8066 24.1016 56.6602 24.207 56.5391C24.3164 56.4141 24.4746 56.3516 24.6816 56.3516C24.8926 56.3516 25.0527 56.4121 25.1621 56.5332C25.2715 56.6543 25.3262 56.8027 25.3262 56.9785C25.3262 57.1543 25.2715 57.3008 25.1621 57.418C25.0527 57.5352 24.8926 57.5938 24.6816 57.5938C24.4707 57.5938 24.3125 57.5352 24.207 57.418C24.1016 57.3008 24.0488 57.1543 24.0488 56.9785ZM29.252 61.8184H26.3926V60.9336H29.252V61.8184ZM35.791 65H30.2012V64.2207L33.1543 60.9395C33.5918 60.4434 33.8926 60.041 34.0566 59.7324C34.2246 59.4199 34.3086 59.0977 34.3086 58.7656C34.3086 58.3203 34.1738 57.9551 33.9043 57.6699C33.6348 57.3848 33.2754 57.2422 32.8262 57.2422C32.2871 57.2422 31.8672 57.3965 31.5664 57.7051C31.2695 58.0098 31.1211 58.4355 31.1211 58.9824H30.0371C30.0371 58.1973 30.2891 57.5625 30.793 57.0781C31.3008 56.5938 31.9785 56.3516 32.8262 56.3516C33.6191 56.3516 34.2461 56.5605 34.707 56.9785C35.168 57.3926 35.3984 57.9453 35.3984 58.6367C35.3984 59.4766 34.8633 60.4766 33.793 61.6367L31.5078 64.1152H35.791V65Z" fill="black"/>
<path d="M166.998 65H165.914V58.6602H166.998V65ZM165.826 56.9785C165.826 56.8027 165.879 56.6543 165.984 56.5332C166.094 56.4121 166.254 56.3516 166.465 56.3516C166.676 56.3516 166.836 56.4121 166.945 56.5332C167.055 56.6543 167.109 56.8027 167.109 56.9785C167.109 57.1543 167.055 57.3008 166.945 57.418C166.836 57.5352 166.676 57.5938 166.465 57.5938C166.254 57.5938 166.094 57.5352 165.984 57.418C165.879 57.3008 165.826 57.1543 165.826 56.9785ZM170.994 61.8184H168.135V60.9336H170.994V61.8184ZM177.533 65H171.943V64.2207L174.896 60.9395C175.334 60.4434 175.635 60.041 175.799 59.7324C175.967 59.4199 176.051 59.0977 176.051 58.7656C176.051 58.3203 175.916 57.9551 175.646 57.6699C175.377 57.3848 175.018 57.2422 174.568 57.2422C174.029 57.2422 173.609 57.3965 173.309 57.7051C173.012 58.0098 172.863 58.4355 172.863 58.9824H171.779C171.779 58.1973 172.031 57.5625 172.535 57.0781C173.043 56.5938 173.721 56.3516 174.568 56.3516C175.361 56.3516 175.988 56.5605 176.449 56.9785C176.91 57.3926 177.141 57.9453 177.141 58.6367C177.141 59.4766 176.605 60.4766 175.535 61.6367L173.25 64.1152H177.533V65ZM178.758 66.6992L178.143 66.2773C178.51 65.7656 178.701 65.2383 178.717 64.6953V63.7168H179.777V64.5664C179.777 64.9609 179.68 65.3555 179.484 65.75C179.293 66.1445 179.051 66.4609 178.758 66.6992ZM185.244 58.6602V65.7324C185.244 66.9512 184.691 67.5605 183.586 67.5605C183.348 67.5605 183.127 67.5254 182.924 67.4551V66.5879C183.049 66.6191 183.213 66.6348 183.416 66.6348C183.658 66.6348 183.842 66.5684 183.967 66.4355C184.096 66.3066 184.16 66.0801 184.16 65.7559V58.6602H185.244ZM184.049 56.9785C184.049 56.8066 184.102 56.6602 184.207 56.5391C184.316 56.4141 184.475 56.3516 184.682 56.3516C184.893 56.3516 185.053 56.4121 185.162 56.5332C185.271 56.6543 185.326 56.8027 185.326 56.9785C185.326 57.1543 185.271 57.3008 185.162 57.418C185.053 57.5352 184.893 57.5938 184.682 57.5938C184.471 57.5938 184.312 57.5352 184.207 57.418C184.102 57.3008 184.049 57.1543 184.049 56.9785ZM190.102 60.4238H192.48V61.4492H190.102V64.1445H189.012V61.4492H186.633V60.4238H189.012V57.9336H190.102V60.4238ZM199.283 65H193.693V64.2207L196.646 60.9395C197.084 60.4434 197.385 60.041 197.549 59.7324C197.717 59.4199 197.801 59.0977 197.801 58.7656C197.801 58.3203 197.666 57.9551 197.396 57.6699C197.127 57.3848 196.768 57.2422 196.318 57.2422C195.779 57.2422 195.359 57.3965 195.059 57.7051C194.762 58.0098 194.613 58.4355 194.613 58.9824H193.529C193.529 58.1973 193.781 57.5625 194.285 57.0781C194.793 56.5938 195.471 56.3516 196.318 56.3516C197.111 56.3516 197.738 56.5605 198.199 56.9785C198.66 57.3926 198.891 57.9453 198.891 58.6367C198.891 59.4766 198.355 60.4766 197.285 61.6367L195 64.1152H199.283V65Z" fill="black"/>
</svg>
