<svg width="202" height="202" viewBox="0 0 202 202" fill="none" xmlns="http://www.w3.org/2000/svg">
<rect x="0.5" y="80.5" width="41" height="41" fill="white" stroke="black"/>
<rect x="0.5" y="80.5" width="41" height="41" fill="white" stroke="black"/>
<rect x="40.5" y="80.5" width="41" height="41" fill="white" stroke="black"/>
<rect x="80.5" y="80.5" width="41" height="41" fill="white" stroke="black"/>
<rect x="120.5" y="80.5" width="41" height="41" fill="white" stroke="black"/>
<rect x="160.5" y="80.5" width="41" height="41" fill="white" stroke="black"/>
<rect x="0.5" y="40.5" width="41" height="41" fill="white" stroke="black"/>
<rect x="0.5" y="0.5" width="41" height="41" fill="white" stroke="black"/>
<rect x="40.5" y="40.5" width="41" height="41" fill="white" stroke="black"/>
<rect x="40.5" y="0.5" width="41" height="41" fill="white" stroke="black"/>
<rect x="80.5" y="40.5" width="41" height="41" fill="white" stroke="black"/>
<rect x="80.5" y="0.5" width="41" height="41" fill="white" stroke="black"/>
<rect x="120.5" y="40.5" width="41" height="41" fill="white" stroke="black"/>
<rect x="120.5" y="0.5" width="41" height="41" fill="white" stroke="black"/>
<rect x="160.5" y="40.5" width="41" height="41" fill="white" stroke="black"/>
<rect x="160.5" y="0.5" width="41" height="41" fill="white" stroke="black"/>
<rect x="0.5" y="120.5" width="41" height="41" fill="white" stroke="black"/>
<rect x="40.5" y="120.5" width="41" height="41" fill="white" stroke="black"/>
<rect x="80.5" y="120.5" width="41" height="41" fill="white" stroke="black"/>
<rect x="120.5" y="120.5" width="41" height="41" fill="white" stroke="black"/>
<rect x="160.5" y="120.5" width="41" height="41" fill="white" stroke="black"/>
<rect x="0.5" y="160.5" width="41" height="41" fill="white" stroke="black"/>
<rect x="40.5" y="160.5" width="41" height="41" fill="white" stroke="black"/>
<rect x="80.5" y="160.5" width="41" height="41" fill="white" stroke="black"/>
<rect x="120.5" y="160.5" width="41" height="41" fill="white" stroke="black"/>
<rect x="160.5" y="160.5" width="41" height="41" fill="white" stroke="black"/>
<path d="M53 9.44446C53 9.88328 53.0706 10.3055 53.201 10.7004L52.3235 11.112C51.596 10.3579 50.575 9.88891 49.4444 9.88891C47.2353 9.88891 45.4444 11.6798 45.4444 13.8889C45.4444 15.8581 46.8675 17.495 48.7413 17.8273L50.8489 25.0534C50.8929 25.2042 50.9567 25.3485 51.0386 25.4826L52.2533 27.4703L52.2459 27.4716C51.3967 27.6219 50.7778 28.3599 50.7778 29.2222V32.5556C50.7778 33.5374 51.5737 34.3333 52.5556 34.3333L69.4786 34.3333C69.9501 34.3333 70.4023 34.146 70.7357 33.8126C71.0691 33.4793 71.2564 33.0271 71.2564 32.5556V29.2222C71.2564 28.3589 70.6361 27.6203 69.7857 27.4712L69.75 27.4649L70.9614 25.4826C71.0433 25.3485 71.1071 25.2042 71.1511 25.0534L73.2587 17.8273C75.1325 17.495 76.5556 15.8581 76.5556 13.8889C76.5556 11.6798 74.7647 9.88891 72.5556 9.88891C71.4236 9.88891 70.4014 10.3591 69.6737 11.1149L68.7978 10.704C68.929 10.308 69 9.8846 69 9.44446C69 7.23532 67.2091 5.44446 65 5.44446C62.7909 5.44446 61 7.23532 61 9.44446C61 7.23532 59.2091 5.44446 57 5.44446C54.7909 5.44446 53 7.23532 53 9.44446Z" fill="#34364C"/>
<path d="M57.7977 11.5192C58.6309 11.1987 59.2222 10.3906 59.2222 9.44445C59.2222 8.21715 58.2273 7.22223 57 7.22223C55.7727 7.22223 54.7778 8.21715 54.7778 9.44445C54.7778 10.5786 55.6274 11.5143 56.7249 11.6498L55.7339 19.6667L50.9565 15.5174C51.3934 15.1116 51.6667 14.5322 51.6667 13.8889C51.6667 12.6616 50.6717 11.6667 49.4444 11.6667C48.2171 11.6667 47.2222 12.6616 47.2222 13.8889C47.2222 15.1162 48.2171 16.1111 49.4444 16.1111C49.6605 16.1111 49.8693 16.0803 50.0668 16.0228L52.5556 24.5556L55.1292 28.7669L52.5556 29.2222V32.5556L69.4786 32.5556V29.2222L66.872 28.7651L69.4444 24.5556L71.9332 16.0228C72.1307 16.0803 72.3395 16.1111 72.5556 16.1111C73.7829 16.1111 74.7778 15.1162 74.7778 13.8889C74.7778 12.6616 73.7829 11.6667 72.5556 11.6667C71.3283 11.6667 70.3333 12.6616 70.3333 13.8889C70.3333 14.5322 70.6066 15.1116 71.0435 15.5174L66.2661 19.6667L65.2751 11.6498C66.3726 11.5143 67.2222 10.5786 67.2222 9.44445C67.2222 8.21715 66.2273 7.22223 65 7.22223C63.7727 7.22223 62.7778 8.21715 62.7778 9.44445C62.7778 10.3906 63.3691 11.1987 64.2023 11.5192L61 18.7778L57.7977 11.5192Z" fill="#F4F7FA"/>
<path d="M13 89.4444C13 89.8833 13.0706 90.3055 13.201 90.7004L12.3235 91.112C11.596 90.3579 10.575 89.8889 9.44444 89.8889C7.2353 89.8889 5.44444 91.6798 5.44444 93.8889C5.44444 95.8581 6.86746 97.495 8.74129 97.8273L10.8489 105.053C10.8929 105.204 10.9567 105.349 11.0386 105.483L12.2533 107.47L12.2459 107.472C11.3967 107.622 10.7778 108.36 10.7778 109.222V112.556C10.7778 113.537 11.5737 114.333 12.5556 114.333L29.4786 114.333C29.9501 114.333 30.4023 114.146 30.7357 113.813C31.0691 113.479 31.2564 113.027 31.2564 112.556V109.222C31.2564 108.359 30.6361 107.62 29.7857 107.471L29.75 107.465L30.9614 105.483C31.0433 105.349 31.1071 105.204 31.1511 105.053L33.2587 97.8273C35.1325 97.495 36.5556 95.8581 36.5556 93.8889C36.5556 91.6798 34.7647 89.8889 32.5556 89.8889C31.4236 89.8889 30.4014 90.3591 29.6737 91.1149L28.7978 90.704C28.929 90.308 29 89.8846 29 89.4444C29 87.2353 27.2091 85.4444 25 85.4444C22.7909 85.4444 21 87.2353 21 89.4444C21 87.2353 19.2091 85.4444 17 85.4444C14.7909 85.4444 13 87.2353 13 89.4444Z" fill="#34364C"/>
<path d="M17.7977 91.5192C18.6309 91.1987 19.2222 90.3906 19.2222 89.4445C19.2222 88.2172 18.2273 87.2222 17 87.2222C15.7727 87.2222 14.7778 88.2172 14.7778 89.4445C14.7778 90.5786 15.6274 91.5143 16.7249 91.6498L15.7339 99.6667L10.9565 95.5174C11.3934 95.1116 11.6667 94.5322 11.6667 93.8889C11.6667 92.6616 10.6718 91.6667 9.44445 91.6667C8.21715 91.6667 7.22223 92.6616 7.22223 93.8889C7.22223 95.1162 8.21715 96.1111 9.44445 96.1111C9.6605 96.1111 9.86935 96.0803 10.0668 96.0228L12.5556 104.556L15.1292 108.767L12.5556 109.222V112.556L29.4786 112.556V109.222L26.872 108.765L29.4445 104.556L31.9332 96.0228C32.1307 96.0803 32.3395 96.1111 32.5556 96.1111C33.7829 96.1111 34.7778 95.1162 34.7778 93.8889C34.7778 92.6616 33.7829 91.6667 32.5556 91.6667C31.3283 91.6667 30.3333 92.6616 30.3333 93.8889C30.3333 94.5322 30.6067 95.1116 31.0435 95.5174L26.2661 99.6667L25.2751 91.6498C26.3726 91.5143 27.2222 90.5786 27.2222 89.4445C27.2222 88.2172 26.2273 87.2222 25 87.2222C23.7727 87.2222 22.7778 88.2172 22.7778 89.4445C22.7778 90.3906 23.3691 91.1987 24.2023 91.5192L21 98.7778L17.7977 91.5192Z" fill="#F4F7FA"/>
<path d="M133 49.4444C133 49.8833 133.071 50.3055 133.201 50.7004L132.324 51.112C131.596 50.3579 130.575 49.8889 129.444 49.8889C127.235 49.8889 125.444 51.6798 125.444 53.8889C125.444 55.8581 126.867 57.495 128.741 57.8273L130.849 65.0533C130.893 65.2042 130.957 65.3485 131.039 65.4826L132.253 67.4703L132.246 67.4716C131.397 67.6218 130.778 68.3599 130.778 69.2222V72.5556C130.778 73.5374 131.574 74.3333 132.556 74.3333L149.479 74.3333C149.95 74.3333 150.402 74.146 150.736 73.8126C151.069 73.4792 151.256 73.0271 151.256 72.5556V69.2222C151.256 68.3589 150.636 67.6203 149.786 67.4712L149.75 67.4649L150.961 65.4826C151.043 65.3485 151.107 65.2042 151.151 65.0533L153.259 57.8273C155.133 57.495 156.556 55.8581 156.556 53.8889C156.556 51.6798 154.765 49.8889 152.556 49.8889C151.424 49.8889 150.401 50.3591 149.674 51.1149L148.798 50.704C148.929 50.308 149 49.8846 149 49.4444C149 47.2353 147.209 45.4444 145 45.4444C142.791 45.4444 141 47.2353 141 49.4444C141 47.2353 139.209 45.4444 137 45.4444C134.791 45.4444 133 47.2353 133 49.4444Z" fill="#34364C"/>
<path d="M137.798 51.5192C138.631 51.1987 139.222 50.3906 139.222 49.4445C139.222 48.2172 138.227 47.2222 137 47.2222C135.773 47.2222 134.778 48.2172 134.778 49.4445C134.778 50.5786 135.627 51.5143 136.725 51.6498L135.734 59.6667L130.957 55.5174C131.393 55.1116 131.667 54.5322 131.667 53.8889C131.667 52.6616 130.672 51.6667 129.444 51.6667C128.217 51.6667 127.222 52.6616 127.222 53.8889C127.222 55.1162 128.217 56.1111 129.444 56.1111C129.66 56.1111 129.869 56.0803 130.067 56.0228L132.556 64.5556L135.129 68.7669L132.556 69.2222V72.5556L149.479 72.5556V69.2222L146.872 68.7651L149.444 64.5556L151.933 56.0228C152.131 56.0803 152.34 56.1111 152.556 56.1111C153.783 56.1111 154.778 55.1162 154.778 53.8889C154.778 52.6616 153.783 51.6667 152.556 51.6667C151.328 51.6667 150.333 52.6616 150.333 53.8889C150.333 54.5322 150.607 55.1116 151.043 55.5174L146.266 59.6667L145.275 51.6498C146.373 51.5143 147.222 50.5786 147.222 49.4445C147.222 48.2172 146.227 47.2222 145 47.2222C143.773 47.2222 142.778 48.2172 142.778 49.4445C142.778 50.3906 143.369 51.1987 144.202 51.5192L141 58.7778L137.798 51.5192Z" fill="#F4F7FA"/>
<path d="M93 129.444C93 129.883 93.0706 130.305 93.201 130.7L92.3235 131.112C91.596 130.358 90.575 129.889 89.4444 129.889C87.2353 129.889 85.4444 131.68 85.4444 133.889C85.4444 135.858 86.8675 137.495 88.7413 137.827L90.8489 145.053C90.8929 145.204 90.9567 145.349 91.0386 145.483L92.2533 147.47L92.2459 147.472C91.3967 147.622 90.7778 148.36 90.7778 149.222V152.556C90.7778 153.537 91.5737 154.333 92.5556 154.333L109.479 154.333C109.95 154.333 110.402 154.146 110.736 153.813C111.069 153.479 111.256 153.027 111.256 152.556V149.222C111.256 148.359 110.636 147.62 109.786 147.471L109.75 147.465L110.961 145.483C111.043 145.349 111.107 145.204 111.151 145.053L113.259 137.827C115.133 137.495 116.556 135.858 116.556 133.889C116.556 131.68 114.765 129.889 112.556 129.889C111.424 129.889 110.401 130.359 109.674 131.115L108.798 130.704C108.929 130.308 109 129.885 109 129.444C109 127.235 107.209 125.444 105 125.444C102.791 125.444 101 127.235 101 129.444C101 127.235 99.2091 125.444 97 125.444C94.7909 125.444 93 127.235 93 129.444Z" fill="#34364C"/>
<path d="M97.7977 131.519C98.6309 131.199 99.2222 130.391 99.2222 129.444C99.2222 128.217 98.2273 127.222 97 127.222C95.7727 127.222 94.7778 128.217 94.7778 129.444C94.7778 130.579 95.6274 131.514 96.7249 131.65L95.7339 139.667L90.9565 135.517C91.3934 135.112 91.6667 134.532 91.6667 133.889C91.6667 132.662 90.6717 131.667 89.4444 131.667C88.2171 131.667 87.2222 132.662 87.2222 133.889C87.2222 135.116 88.2171 136.111 89.4444 136.111C89.6605 136.111 89.8693 136.08 90.0668 136.023L92.5556 144.556L95.1292 148.767L92.5556 149.222V152.556L109.479 152.556V149.222L106.872 148.765L109.444 144.556L111.933 136.023C112.131 136.08 112.34 136.111 112.556 136.111C113.783 136.111 114.778 135.116 114.778 133.889C114.778 132.662 113.783 131.667 112.556 131.667C111.328 131.667 110.333 132.662 110.333 133.889C110.333 134.532 110.607 135.112 111.043 135.517L106.266 139.667L105.275 131.65C106.373 131.514 107.222 130.579 107.222 129.444C107.222 128.217 106.227 127.222 105 127.222C103.773 127.222 102.778 128.217 102.778 129.444C102.778 130.391 103.369 131.199 104.202 131.519L101 138.778L97.7977 131.519Z" fill="#F4F7FA"/>
<path d="M173 169.444C173 169.883 173.071 170.305 173.201 170.7L172.324 171.112C171.596 170.358 170.575 169.889 169.444 169.889C167.235 169.889 165.444 171.68 165.444 173.889C165.444 175.858 166.867 177.495 168.741 177.827L170.849 185.053C170.893 185.204 170.957 185.349 171.039 185.483L172.253 187.47L172.246 187.472C171.397 187.622 170.778 188.36 170.778 189.222V192.556C170.778 193.537 171.574 194.333 172.556 194.333L189.479 194.333C189.95 194.333 190.402 194.146 190.736 193.813C191.069 193.479 191.256 193.027 191.256 192.556V189.222C191.256 188.359 190.636 187.62 189.786 187.471L189.75 187.465L190.961 185.483C191.043 185.349 191.107 185.204 191.151 185.053L193.259 177.827C195.133 177.495 196.556 175.858 196.556 173.889C196.556 171.68 194.765 169.889 192.556 169.889C191.424 169.889 190.401 170.359 189.674 171.115L188.798 170.704C188.929 170.308 189 169.885 189 169.444C189 167.235 187.209 165.444 185 165.444C182.791 165.444 181 167.235 181 169.444C181 167.235 179.209 165.444 177 165.444C174.791 165.444 173 167.235 173 169.444Z" fill="#34364C"/>
<path d="M177.798 171.519C178.631 171.199 179.222 170.391 179.222 169.444C179.222 168.217 178.227 167.222 177 167.222C175.773 167.222 174.778 168.217 174.778 169.444C174.778 170.579 175.627 171.514 176.725 171.65L175.734 179.667L170.957 175.517C171.393 175.112 171.667 174.532 171.667 173.889C171.667 172.662 170.672 171.667 169.444 171.667C168.217 171.667 167.222 172.662 167.222 173.889C167.222 175.116 168.217 176.111 169.444 176.111C169.66 176.111 169.869 176.08 170.067 176.023L172.556 184.556L175.129 188.767L172.556 189.222V192.556L189.479 192.556V189.222L186.872 188.765L189.444 184.556L191.933 176.023C192.131 176.08 192.34 176.111 192.556 176.111C193.783 176.111 194.778 175.116 194.778 173.889C194.778 172.662 193.783 171.667 192.556 171.667C191.328 171.667 190.333 172.662 190.333 173.889C190.333 174.532 190.607 175.112 191.043 175.517L186.266 179.667L185.275 171.65C186.373 171.514 187.222 170.579 187.222 169.444C187.222 168.217 186.227 167.222 185 167.222C183.773 167.222 182.778 168.217 182.778 169.444C182.778 170.391 183.369 171.199 184.202 171.519L181 178.778L177.798 171.519Z" fill="#F4F7FA"/>
</svg>
